<svg width="46" height="20" viewBox="0 0 46 20" fill="none" xmlns="http://www.w3.org/2000/svg">
<rect width="45.085" height="19.4834" rx="4.52899" fill="#EBEBEB"/>
<path d="M7.456 6.32V5.324H9.712V14H8.608V6.32H7.456ZM11.5878 9.572C11.5878 8.196 11.8118 7.124 12.2598 6.356C12.7078 5.58 13.4918 5.192 14.6118 5.192C15.7238 5.192 16.5038 5.58 16.9518 6.356C17.3997 7.124 17.6237 8.196 17.6237 9.572C17.6237 10.972 17.3997 12.06 16.9518 12.836C16.5038 13.612 15.7238 14 14.6118 14C13.4918 14 12.7078 13.612 12.2598 12.836C11.8118 12.06 11.5878 10.972 11.5878 9.572ZM16.5438 9.572C16.5438 8.876 16.4958 8.288 16.3998 7.808C16.3118 7.32 16.1238 6.928 15.8358 6.632C15.5558 6.336 15.1478 6.188 14.6118 6.188C14.0678 6.188 13.6518 6.336 13.3638 6.632C13.0838 6.928 12.8958 7.32 12.7998 7.808C12.7118 8.288 12.6678 8.876 12.6678 9.572C12.6678 10.292 12.7118 10.896 12.7998 11.384C12.8958 11.872 13.0838 12.264 13.3638 12.56C13.6518 12.856 14.0678 13.004 14.6118 13.004C15.1478 13.004 15.5558 12.856 15.8358 12.56C16.1238 12.264 16.3118 11.872 16.3998 11.384C16.4958 10.896 16.5438 10.292 16.5438 9.572ZM19.1229 9.572C19.1229 8.196 19.3469 7.124 19.7949 6.356C20.2429 5.58 21.0269 5.192 22.1469 5.192C23.2589 5.192 24.0389 5.58 24.4869 6.356C24.9349 7.124 25.1589 8.196 25.1589 9.572C25.1589 10.972 24.9349 12.06 24.4869 12.836C24.0389 13.612 23.2589 14 22.1469 14C21.0269 14 20.2429 13.612 19.7949 12.836C19.3469 12.06 19.1229 10.972 19.1229 9.572ZM24.0789 9.572C24.0789 8.876 24.0309 8.288 23.9349 7.808C23.8469 7.32 23.6589 6.928 23.3709 6.632C23.0909 6.336 22.6829 6.188 22.1469 6.188C21.6029 6.188 21.1869 6.336 20.8989 6.632C20.6189 6.928 20.4309 7.32 20.3349 7.808C20.2469 8.288 20.2029 8.876 20.2029 9.572C20.2029 10.292 20.2469 10.896 20.3349 11.384C20.4309 11.872 20.6189 12.264 20.8989 12.56C21.1869 12.856 21.6029 13.004 22.1469 13.004C22.6829 13.004 23.0909 12.856 23.3709 12.56C23.6589 12.264 23.8469 11.872 23.9349 11.384C24.0309 10.896 24.0789 10.292 24.0789 9.572ZM29.5501 7.316C30.1181 7.316 30.6141 7.44 31.0381 7.688C31.4701 7.936 31.7901 8.248 31.9981 8.624V7.424H33.1021V14.144C33.1021 14.744 32.9741 15.276 32.7181 15.74C32.4621 16.212 32.0941 16.58 31.6141 16.844C31.1421 17.108 30.5901 17.24 29.9581 17.24C29.0941 17.24 28.3741 17.036 27.7981 16.628C27.2221 16.22 26.8821 15.664 26.7781 14.96H27.8581C27.9781 15.36 28.2261 15.68 28.6021 15.92C28.9781 16.168 29.4301 16.292 29.9581 16.292C30.5581 16.292 31.0461 16.104 31.4221 15.728C31.8061 15.352 31.9981 14.824 31.9981 14.144V12.764C31.7821 13.148 31.4621 13.468 31.0381 13.724C30.6141 13.98 30.1181 14.108 29.5501 14.108C28.9661 14.108 28.4341 13.964 27.9541 13.676C27.4821 13.388 27.1101 12.984 26.8381 12.464C26.5661 11.944 26.4301 11.352 26.4301 10.688C26.4301 10.016 26.5661 9.428 26.8381 8.924C27.1101 8.412 27.4821 8.016 27.9541 7.736C28.4341 7.456 28.9661 7.316 29.5501 7.316ZM31.9981 10.7C31.9981 10.204 31.8981 9.772 31.6981 9.404C31.4981 9.036 31.2261 8.756 30.8821 8.564C30.5461 8.364 30.1741 8.264 29.7661 8.264C29.3581 8.264 28.9861 8.36 28.6501 8.552C28.3141 8.744 28.0461 9.024 27.8461 9.392C27.6461 9.76 27.5461 10.192 27.5461 10.688C27.5461 11.192 27.6461 11.632 27.8461 12.008C28.0461 12.376 28.3141 12.66 28.6501 12.86C28.9861 13.052 29.3581 13.148 29.7661 13.148C30.1741 13.148 30.5461 13.052 30.8821 12.86C31.2261 12.66 31.4981 12.376 31.6981 12.008C31.8981 11.632 31.9981 11.196 31.9981 10.7ZM36.0394 8.492C36.2314 8.116 36.5034 7.824 36.8554 7.616C37.2154 7.408 37.6514 7.304 38.1634 7.304V8.432H37.8754C36.6514 8.432 36.0394 9.096 36.0394 10.424V14H34.9474V7.424H36.0394V8.492Z" fill="#7C7C7C"/>
</svg>
